General
Complete name                    : Interview.with.the.Vampire.1994.1080p.BluRay.x264-DON.mkv
Format                           : Matroska
File size                        : 8.84 GiB
Duration                         : 2h 2mn
Overall bit rate                 : 10.3 Mbps
Encoded date                     : UTC 2008-09-30 22:09:32
Writing application              : mkvmerge v2.2.0 ('Turn It On Again') built on Mar  4 2008 12:58:26
Writing library                  : libebml v0.7.7 + libmatroska v0.8.1

Video
ID                               : 1
Format                           : AVC
Format/Info                      : Advanced Video Codec
Format profile                   : High@L5.0
Format settings, CABAC           : Yes
Format settings, ReFrames        : 6 frames
Muxing mode                      : Container profile=Unknown@5.0
Codec ID                         : V_MPEG4/ISO/AVC
Duration                         : 2h 2mn
Bit rate                         : 9 292 Kbps
Nominal bit rate                 : 9 493 Kbps
Width                            : 1 920 pixels
Height                           : 1 080 pixels
Display aspect ratio             : 16:9
Frame rate                       : 23.976 fps
Resolution                       : 8 bits
Colorimetry                      : 4:2:0
Scan type                        : Progressive
Bits/(Pixel*Frame)               : 0.187
Stream size                      : 7.95 GiB (90%)
Writing library                  : x264 core 64 r994M b35a044
Encoding settings                : cabac=1 / ref=6 / deblock=1:-3:-3 / analyse=0x3:0x113 / me=umh / subme=7 / psy_rd=0.8:0.0 / brdo=1 / mixed_ref=1 / me_range=32 / chroma_me=1 / trellis=0 / 8x8dct=1 / cqm=2 / deadzone=8,6 / chroma_qp_offset=-2 / threads=6 / nr=0 / decimate=1 / mbaff=0 / bframes=5 / b_pyramid=1 / b_adapt=1 / b_bias=0 / direct=3 / wpredb=1 / bime=1 / keyint=250 / keyint_min=25 / scenecut=40(pre) / rc=2pass / bitrate=9493 / ratetol=1.0 / qcomp=0.60 / qpmin=10 / qpmax=51 / qpstep=4 / cplxblur=20.0 / qblur=0.5 / ip_ratio=1.40 / pb_ratio=1.30 / aq=1:0.60
Language                         : English

Audio #1
ID                               : 2
Format                           : AC-3
Format/Info                      : Audio Coding 3
Codec ID                         : A_AC3
Duration                         : 2h 2mn
Bit rate mode                    : Constant
Bit rate                         : 640 Kbps
Channel(s)                       : 6 channels
Channel positions                : Front: L C R, Surround: L R, LFE
Sampling rate                    : 48.0 KHz
Stream size                      : 561 MiB (6%)
Language                         : English

Audio #2
ID                               : 3
Format                           : AC-3
Format/Info                      : Audio Coding 3
Format profile                   : Dolby Digital
Codec ID                         : A_AC3
Duration                         : 2h 2mn
Bit rate mode                    : Constant
Bit rate                         : 192 Kbps
Channel(s)                       : 2 channels
Channel positions                : L R
Sampling rate                    : 48.0 KHz
Stream size                      : 168 MiB (2%)
Title                            : commentary
Language                         : English

Text #1
ID                               : 4
Format                           : UTF-8
Codec ID                         : S_TEXT/UTF8
Codec ID/Info                    : UTF-8 Plain Text
Language                         : English

Text #2
ID                               : 5
Format                           : UTF-8
Codec ID                         : S_TEXT/UTF8
Codec ID/Info                    : UTF-8 Plain Text
Language                         : French

Text #3
ID                               : 6
Format                           : UTF-8
Codec ID                         : S_TEXT/UTF8
Codec ID/Info                    : UTF-8 Plain Text
Language                         : Spanish

Text #4
ID                               : 7
Format                           : UTF-8
Codec ID                         : S_TEXT/UTF8
Codec ID/Info                    : UTF-8 Plain Text
Language                         : German

Text #5
ID                               : 8
Format                           : UTF-8
Codec ID                         : S_TEXT/UTF8
Codec ID/Info                    : UTF-8 Plain Text
Language                         : Finnish

Text #6
ID                               : 9
Format                           : UTF-8
Codec ID                         : S_TEXT/UTF8
Codec ID/Info                    : UTF-8 Plain Text
Language                         : Swedish

Menu
00:00:00.000                     : en:1
00:03:01.473                     : en:2
00:05:51.101                     : en:3
00:09:30.487                     : en:4
00:11:23.892                     : en:5
00:16:17.226                     : en:6
00:24:22.002                     : en:7
00:30:51.767                     : en:8
00:36:15.340                     : en:9
00:40:51.324                     : en:10
00:50:17.389                     : en:11
00:56:40.772                     : en:12
01:08:55.381                     : en:13
01:10:29.100                     : en:14
01:11:31.704                     : en:15
01:14:11.280                     : en:16
01:19:44.571                     : en:17
01:23:56.615                     : en:18
01:24:32.484                     : en:19
01:25:51.897                     : en:20
01:30:09.279                     : en:21
01:34:13.690                     : en:22
01:36:23.945                     : en:23
01:40:33.694                     : en:24
01:43:35.000                     : en:25
01:46:00.396                     : en:26
01:47:05.836                     : en:27
01:52:49.137                     : en:28
01:54:47.089                     : en:29
02:02:33.096                     : en:30
